<svg width="908" height="768" viewBox="0 0 908 768" fill="none" xmlns="http://www.w3.org/2000/svg">
<path d="M223.199 203.964C48.4153 -14.3296 834.383 225.695 927.472 -38.526L938.267 770.474H369.708C-78.4487 751.165 -83.4222 684.271 167.165 505.892C249.073 455.921 374.951 325.577 223.199 203.964Z" fill="#C2F2E0"/>
<path d="M1100.2 94.028L1078.61 144.525M927.472 -38.526C834.383 225.695 48.4153 -14.3296 223.199 203.964C374.951 325.577 249.073 455.921 167.165 505.892C-83.4222 684.271 -78.4487 751.165 369.708 770.474H938.267L927.472 -38.526Z" stroke="white"/>
<path d="M594.471 181.33C612.677 181.33 627.435 169.346 627.435 154.564C627.435 139.781 612.677 127.797 594.471 127.797C576.265 127.797 561.507 139.781 561.507 154.564C561.507 169.346 576.265 181.33 594.471 181.33Z" fill="#3F3D56"/>
<path d="M660.4 294.57C686.616 294.57 707.869 272.446 707.869 245.154C707.869 217.862 686.616 195.738 660.4 195.738C634.183 195.738 612.93 217.862 612.93 245.154C612.93 272.446 634.183 294.57 660.4 294.57Z" fill="#3F3D56"/>
<path d="M811.04 695.728C817.592 695.728 822.903 690.199 822.903 683.378C822.903 676.558 817.592 671.029 811.04 671.029C804.488 671.029 799.177 676.558 799.177 683.378C799.177 690.199 804.488 695.728 811.04 695.728Z" fill="#3F3D56"/>
<path d="M749.074 695.728C755.626 695.728 760.937 690.199 760.937 683.378C760.937 676.558 755.626 671.029 749.074 671.029C742.522 671.029 737.211 676.558 737.211 683.378C737.211 690.199 742.522 695.728 749.074 695.728Z" fill="#3F3D56"/>
<path d="M767.533 385.515H762.258V537.197H767.533V385.515Z" fill="#3F3D56"/>
<path d="M795.879 385.515H790.603V537.197H795.879V385.515Z" fill="#3F3D56"/>
<path d="M763.546 389.632L762.225 385.515C762.225 385.515 776.73 367.674 797.166 382.056L795.845 388.239H790.57C790.57 388.239 782.005 380.759 767.5 389.303L763.546 389.632Z" fill="#3F3D56"/>
<path d="M674.905 363.895H627.435V427.035H674.905V363.895Z" fill="#FBBEBE"/>
<path d="M707.869 346.045H693.364V376.244H707.869V346.045Z" fill="#FBBEBE"/>
<path d="M633.699 671.029L627.768 689.562C627.768 689.562 625.126 703.287 633.699 703.97C642.273 704.653 656.13 701.912 656.13 701.912C656.13 701.912 658.107 695.737 656.13 690.245C654.152 684.753 648.221 669.654 648.221 669.654L633.699 671.029Z" fill="#3C354C"/>
<path d="M678.527 671.712C678.527 671.712 669.297 695.737 676.549 699.853C683.802 703.97 693.696 700.536 701.605 703.97C709.514 707.403 731.271 699.17 731.271 699.17C731.271 699.17 733.913 691.62 719.408 689.562C719.408 689.562 703.624 677.203 703.624 674.462C703.624 671.72 694.394 671.712 694.394 671.712H678.527Z" fill="#3C354C"/>
<path d="M676.549 397.874C676.549 397.874 622.492 409.54 615.905 406.107C609.317 402.673 602.72 452.807 602.72 452.807C602.72 452.807 600.079 483.007 609.308 523.498C618.538 563.989 609.308 583.897 609.308 583.897C609.308 583.897 610.629 622.33 620.523 640.18C630.418 658.03 630.409 674.497 630.409 674.497C630.409 674.497 649.517 676.555 650.19 671.746C650.19 671.746 642.273 652.53 643.593 634.689C644.914 616.847 639.639 582.522 639.639 582.522C639.639 582.522 648.212 539.281 646.892 522.849C645.571 506.418 651.511 471.375 654.8 477.55C658.09 483.725 666.672 513.924 666.672 520.108C666.672 526.291 669.995 567.457 671.947 570.207C673.899 572.957 673.26 581.191 672.603 585.307C671.947 589.424 671.947 620.307 675.237 636.782C678.527 653.256 675.901 671.781 676.558 674.531C677.214 677.281 696.338 675.214 696.994 670.406C696.994 670.406 699.636 640.898 700.957 636.782C702.278 632.665 702.901 580.429 702.901 580.429C702.901 580.429 704.213 539.938 705.534 535.822C706.855 531.705 708.857 443.164 700.259 432.908C691.661 422.651 694.984 396.533 694.984 396.533L676.549 397.874Z" fill="#3F3D56"/>
<path d="M632.112 278.311C629.67 283.103 627.211 287.937 625.682 293.135C624.154 298.332 623.622 303.962 625.059 309.186C626.088 312.448 627.517 315.559 629.313 318.439C630.741 321.192 632.552 323.71 634.688 325.911C639.672 330.651 646.917 331.602 653.646 332.346C654.8 332.546 655.979 332.526 657.126 332.285C658.047 332.007 658.897 331.523 659.619 330.867C662.568 328.272 663.905 324.312 664.985 320.489C667.554 311.398 669.394 302.101 670.485 292.694C670.738 291.206 670.738 289.684 670.485 288.196C669.903 285.602 667.91 283.587 666.464 281.356C664.733 278.689 663.744 275.577 663.606 272.361C663.548 270.796 663.606 269.067 662.659 267.873C662.029 267.223 661.265 266.732 660.425 266.437C656.495 264.708 652.574 262.978 648.636 261.318C646.26 260.297 641.99 257.582 639.498 259.588C637.363 261.318 638.393 265.33 637.479 267.735C636.075 271.384 633.874 274.852 632.112 278.311Z" fill="#FBBEBE"/>
<path opacity="0.1" d="M632.112 278.311C629.67 283.103 627.211 287.937 625.682 293.135C624.154 298.332 623.622 303.962 625.059 309.186C626.088 312.448 627.517 315.559 629.313 318.439C630.741 321.192 632.552 323.71 634.688 325.911C639.672 330.651 646.917 331.602 653.646 332.346C654.8 332.546 655.979 332.526 657.126 332.285C658.047 332.007 658.897 331.523 659.619 330.867C662.568 328.272 663.905 324.312 664.985 320.489C667.554 311.398 669.394 302.101 670.485 292.694C670.738 291.206 670.738 289.684 670.485 288.196C669.903 285.602 667.91 283.587 666.464 281.356C664.733 278.689 663.744 275.577 663.606 272.361C663.548 270.796 663.606 269.067 662.659 267.873C662.029 267.223 661.265 266.732 660.425 266.437C656.495 264.708 652.574 262.978 648.636 261.318C646.26 260.297 641.99 257.582 639.498 259.588C637.363 261.318 638.393 265.33 637.479 267.735C636.075 271.384 633.874 274.852 632.112 278.311Z" fill="black"/>
<path d="M658.09 279.825C670.836 279.825 681.168 269.069 681.168 255.8C681.168 242.532 670.836 231.775 658.09 231.775C645.344 231.775 635.012 242.532 635.012 255.8C635.012 269.069 645.344 279.825 658.09 279.825Z" fill="#FBBEBE"/>
<path d="M666.19 316.39C661.82 318.024 657.309 319.434 652.665 319.607C649.186 319.643 645.715 319.257 642.322 318.457C635.312 317.005 628.427 314.96 621.736 312.342C620.307 315.274 619.925 318.621 619.801 321.907C619.443 331.844 621.346 341.703 622.077 351.623C622.999 364.232 622.077 377.118 625.192 389.329C625.372 387.254 626.148 385.283 627.419 383.673C628.478 382.485 629.743 381.517 631.149 380.819C637.436 377.436 644.676 376.497 651.569 378.173C655.565 379.159 659.81 381.001 663.598 379.349C665.858 378.354 667.494 376.262 668.749 374.065C670.878 370.101 672.398 365.814 673.251 361.361C675.744 349.91 676.076 338.071 676.375 326.327C676.458 323.187 677.754 313.856 675.253 311.555C673.501 309.955 672.985 312.239 671.723 313.432C670.08 314.782 668.201 315.787 666.19 316.39V316.39Z" fill="#F2F2F2"/>
<path d="M633.708 275.146C632.171 273.892 629.894 274.281 628.2 275.345C626.505 276.409 625.134 277.879 623.415 278.848C618.646 281.537 612.241 279.565 607.713 282.696C603.46 285.645 602.729 291.716 602.396 297.026C601.566 310.518 600.851 324.104 597.736 337.232C596.905 340.691 595.908 344.237 596.224 347.8C596.473 349.836 596.935 351.837 597.603 353.768L601.69 367.06C603.584 373.235 605.503 379.505 605.703 385.982C605.902 392.46 604.44 398.617 602.986 404.801C600.113 416.983 598.243 429.398 597.395 441.91C597.138 446.053 597.03 450.377 598.641 454.174C600.303 458.143 603.676 461.092 607.231 463.332C610.787 465.572 614.65 467.302 618.131 469.68C625.118 474.463 630.725 481.995 638.9 483.958C642.646 484.823 646.568 484.477 650.339 483.716C650.339 483.716 648.204 382.774 642.264 368.357C636.324 353.94 631.057 291.491 631.057 289.433C631.057 287.375 633.708 275.146 633.708 275.146Z" fill="#FE8611"/>
<path d="M665.791 278.45C665.791 278.45 696.986 278.45 701.605 295.608C706.224 312.766 688.421 340.908 688.421 340.908C688.421 340.908 695.673 396.498 698.963 401.99C702.253 407.482 700.949 418.422 700.949 418.422C703.337 425.952 703.79 434.003 702.261 441.772C699.628 454.122 689.733 476.088 689.733 476.088C689.733 476.088 676.549 476.088 673.251 484.321C669.953 492.555 669.297 448.63 669.297 448.63C669.297 448.63 657.434 368.331 658.09 363.531C658.746 358.732 662.044 318.915 663.365 307.932C664.686 296.948 667.561 282.566 665.791 278.45Z" fill="#FE8611"/>
<path d="M689.733 289.433C689.733 289.433 704.903 294.233 704.903 299.725C704.903 305.216 709.547 334.724 709.547 344.332C709.547 353.94 707.57 355.316 709.547 358.749C711.524 362.182 688.454 360.807 688.454 360.807L684.259 321.691L689.733 289.433Z" fill="#FE8611"/>
<path d="M600.07 338.849C600.07 338.849 629.745 340.908 635.02 336.782C640.295 332.657 662.709 342.274 664.686 347.766C666.663 353.257 633.035 353.94 627.768 353.94C622.501 353.94 597.437 362.182 597.437 362.182L600.07 338.849Z" fill="#A0616A"/>
<path d="M538.985 658.549C538.985 658.549 525.153 694.872 532.339 699.196C539.525 703.52 615.298 700.441 615.298 700.441C615.298 700.441 627.917 692.312 613.495 686.673C613.495 686.673 601.466 686.051 593.657 681.043C585.848 676.036 576.818 666.653 576.818 666.653C576.818 666.653 576.219 652.885 571.409 656.015C569.971 657.002 568.746 658.291 567.815 659.8C566.883 661.309 566.266 663.004 566.001 664.776L538.985 658.549Z" fill="#3F3D56"/>
<path opacity="0.1" d="M538.985 658.549C538.985 658.549 525.153 694.872 532.339 699.196C539.525 703.52 615.298 700.441 615.298 700.441C615.298 700.441 627.917 692.312 613.495 686.673C613.495 686.673 601.466 686.051 593.657 681.043C585.848 676.036 576.818 666.653 576.818 666.653C576.818 666.653 576.219 652.885 571.409 656.015C569.971 657.002 568.746 658.291 567.815 659.8C566.883 661.309 566.266 663.004 566.001 664.776L538.985 658.549Z" fill="black"/>
<path d="M517.643 669.653C517.643 669.653 502.482 709.435 510.391 714.261C518.299 719.087 601.375 715.636 601.375 715.636C601.375 715.636 615.223 706.72 599.397 700.536C599.397 700.536 586.213 699.853 577.64 694.362C569.067 688.87 559.181 678.553 559.181 678.553C559.181 678.553 558.524 663.453 553.249 666.886C551.671 667.967 550.327 669.381 549.305 671.036C548.284 672.691 547.607 674.55 547.318 676.494L517.643 669.653Z" fill="#3F3D56"/>
<path d="M595.46 417.09L586.23 503.573C586.23 503.573 582.907 544.755 573.046 553.672C573.046 553.672 573.046 566.713 569.723 570.83L565.104 625.055C565.104 625.055 571.7 644.945 571.044 648.405C570.388 651.864 573.677 662.813 573.021 664.188C572.365 665.563 541.369 664.188 541.369 664.188L547.966 553.689L568.402 399.958L595.46 417.09Z" fill="#3C354C"/>
<path opacity="0.1" d="M595.46 417.09L586.23 503.573C586.23 503.573 582.907 544.755 573.046 553.672C573.046 553.672 573.046 566.713 569.723 570.83L565.104 625.055C565.104 625.055 571.7 644.945 571.044 648.405C570.388 651.864 573.677 662.813 573.021 664.188C572.365 665.563 541.369 664.188 541.369 664.188L547.966 553.689L568.402 399.958L595.46 417.09Z" fill="black"/>
<path d="M578.978 414.34C578.978 414.34 571.725 485.031 568.427 500.13C566.354 510.074 565.031 520.172 564.473 530.33C564.473 530.33 563.816 552.297 557.876 558.472C556.143 560.259 554.781 562.398 553.875 564.756C552.969 567.114 552.538 569.64 552.609 572.179C552.609 572.179 546.67 641.495 549.968 649.737C553.266 657.978 556.564 664.836 553.291 670.319C550.018 675.802 513.73 675.811 513.73 671.694C513.73 667.578 513.73 664.145 511.753 662.086C509.776 660.028 511.753 646.986 511.753 646.986C511.753 646.986 503.844 585.904 511.097 568.062C518.349 550.221 521.647 501.471 521.647 501.471C521.647 501.471 516.372 445.88 509.776 436.955C503.18 428.03 511.097 396.464 511.097 396.464L578.978 414.34Z" fill="#3C354C"/>
<path d="M560.419 194.813C561.183 196.629 563.019 197.641 564.689 198.601C574.367 204.153 582.467 212.204 590.442 220.161C588.451 213.131 588.877 205.598 591.647 198.86C592.594 196.568 593.848 194.095 593.167 191.699C592.66 189.97 591.223 188.655 589.844 187.531C586.587 184.909 583.184 182.492 579.651 180.292C577.158 178.753 572.107 174.662 569.274 175.103C569.125 179.09 569.05 182.653 567.372 186.346C566.957 187.263 560.709 195.504 560.419 194.813Z" fill="#A0616A"/>
<path d="M594.139 203.634C609.069 203.634 621.171 191.035 621.171 175.492C621.171 159.95 609.069 147.351 594.139 147.351C579.209 147.351 567.106 159.95 567.106 175.492C567.106 191.035 579.209 203.634 594.139 203.634Z" fill="#A0616A"/>
<path d="M595.46 242.075C595.46 242.075 600.07 218.05 586.886 209.817C573.702 201.584 558.541 191.976 558.541 191.976C558.541 191.976 553.922 191.284 551.945 201.584C551.945 201.584 514.37 209.134 510.407 246.192C506.445 283.25 513.049 337.474 513.049 337.474C513.049 337.474 507.117 384.832 499.865 410.223C499.865 410.223 493.925 415.715 520.302 407.482C546.678 399.249 592.818 430.832 592.818 430.832C592.818 430.832 597.437 426.024 597.437 422.59C597.437 419.157 602.712 399.24 602.712 399.24C602.712 399.24 607.323 314.824 609.3 305.216C611.277 295.608 601.391 243.45 595.46 242.075Z" fill="#3F3D56"/>
<path d="M554.587 289.433C554.587 289.433 590.841 267.467 583.588 239.325C576.336 211.184 560.518 202.267 560.518 202.267C560.518 202.267 534.806 193.342 513.049 222.158L514.37 235.2C514.37 235.2 538.105 185.101 563.816 216.667C589.528 248.233 554.587 289.433 554.587 289.433Z" fill="#FE8611"/>
<path d="M515.683 223.542V336.082L508.945 374.471L505.797 392.365H482.752L450.452 380.006V296.983C450.452 296.983 477.476 241.384 486.05 231.092C494.623 220.801 515.683 223.542 515.683 223.542Z" fill="#FE8611"/>
<path opacity="0.1" d="M508.937 374.48L505.797 392.373H482.718L450.419 380.024L508.937 374.48Z" fill="black"/>
<path d="M507.774 350.507L564.473 278.441L514.362 353.257L509.086 354.624L507.774 350.507Z" fill="#FE8611"/>
<path d="M587.767 178.398C589.304 177.317 591.231 177.118 593.075 176.928C594.92 176.738 596.847 176.478 598.317 175.302C600.868 173.261 601.059 169.317 602.928 166.593C605.628 162.641 611.02 162.165 615.68 162.356C618.53 162.477 621.595 162.658 623.988 161.058C626.38 159.458 627.56 156.302 628.391 153.387C629.379 149.928 630.011 145.708 627.56 143.148C625.898 141.366 623.207 141.012 621.329 139.446C619.452 137.881 618.58 135.191 617.524 132.848C616.32 129.985 614.415 127.501 612 125.644C608.461 123.049 603.942 122.513 599.63 122.556C595.318 122.6 590.99 123.196 586.712 122.643C583.206 122.193 579.709 120.982 576.219 121.519C571.767 122.202 568.086 125.704 565.885 129.795C563.683 133.886 562.753 138.556 561.839 143.139L559.347 155.619C558.583 159.493 557.81 163.463 558.4 167.363C559.629 175.458 566.508 181.892 566.982 190.065C567.434 187.807 568.417 185.701 569.844 183.937C571.271 182.172 573.096 180.804 575.156 179.955C575.672 179.693 576.256 179.617 576.818 179.739C577.499 179.972 577.898 180.681 578.33 181.278C579.459 182.843 583.007 185.213 584.976 184.106C586.853 183.111 585.507 179.998 587.767 178.398Z" fill="#3F3D56"/>
<path d="M760.281 527.589C760.281 527.589 742.478 528.272 739.844 549.547C737.211 570.821 739.844 669.654 739.844 669.654C739.844 669.654 760.281 685.437 785.336 683.378C810.392 681.32 850.6 673.77 850.6 673.77V557.884C850.6 540.587 836.743 526.482 820.145 527.476C819.755 527.476 819.314 527.528 818.957 527.571L760.281 527.589Z" fill="#3C354C"/>
<path d="M785.993 699.161C792.545 699.161 797.856 693.632 797.856 686.812C797.856 679.991 792.545 674.462 785.993 674.462C779.441 674.462 774.13 679.991 774.13 686.812C774.13 693.632 779.441 699.161 785.993 699.161Z" fill="#3F3D56"/>
<path d="M850.6 693.67C857.152 693.67 862.464 688.141 862.464 681.32C862.464 674.5 857.152 668.97 850.6 668.97C844.049 668.97 838.737 674.5 838.737 681.32C838.737 688.141 844.049 693.67 850.6 693.67Z" fill="#3F3D56"/>
<path d="M519.645 306.591C519.645 306.591 515.026 336.782 534.142 334.041C534.142 334.041 544.036 332.666 545.357 334.041C546.678 335.416 595.46 326.491 602.056 318.941C602.056 318.941 609.965 316.199 613.919 320.316C617.873 324.433 657.434 328.549 645.579 316.191C633.724 303.833 615.257 301.091 615.257 301.091L590.201 302.457C590.201 302.457 577.017 306.583 569.108 302.457C561.199 298.332 538.761 299.759 538.761 299.759L519.645 306.591Z" fill="#A0616A"/>
<path d="M546.67 211.192C546.67 211.192 517.003 214.652 517.003 259.233V316.191C517.003 316.191 533.486 308.641 536.784 309.324C540.082 310.007 553.266 300.399 553.266 300.399C553.266 300.399 568.427 263.35 567.106 253.059C565.785 242.767 566.45 212.559 546.67 211.192Z" fill="#3F3D56"/>
<path d="M682.481 321.682L652.815 343.649L671.274 345.707L696.986 323.058L682.481 321.682Z" fill="#3F3D56"/>
<path d="M705.559 354.632C705.559 354.632 712.812 377.983 702.926 384.832C693.04 391.681 676.549 360.807 676.549 360.807C676.549 360.807 658.746 338.849 670.618 334.041C682.489 329.232 687.333 350.17 687.333 350.17L702.901 364.241L705.559 354.632Z" fill="#FBBEBE"/>
<path d="M660.4 255.454C674.962 255.454 686.768 247.617 686.768 237.95C686.768 228.283 674.962 220.446 660.4 220.446C645.837 220.446 634.031 228.283 634.031 237.95C634.031 247.617 645.837 255.454 660.4 255.454Z" fill="#3F3D56"/>
<path d="M665.01 215.646C675.568 215.646 684.126 206.737 684.126 195.747C684.126 184.756 675.568 175.847 665.01 175.847C654.453 175.847 645.895 184.756 645.895 195.747C645.895 206.737 654.453 215.646 665.01 215.646Z" fill="#3F3D56"/>
<path d="M594.139 171.722C608.155 171.722 619.518 165.577 619.518 157.997C619.518 150.417 608.155 144.272 594.139 144.272C580.122 144.272 568.759 150.417 568.759 157.997C568.759 165.577 580.122 171.722 594.139 171.722Z" fill="#3F3D56"/>
<path d="M570.404 183.388C575.318 183.388 579.302 173.093 579.302 160.393C579.302 147.692 575.318 137.397 570.404 137.397C565.49 137.397 561.507 147.692 561.507 160.393C561.507 173.093 565.49 183.388 570.404 183.388Z" fill="#3F3D56"/>
<path d="M437.966 703.235C440.458 698.469 437.633 692.632 434.41 688.377C431.187 684.122 427.249 679.729 427.332 674.289C427.457 666.506 435.39 661.913 441.729 657.788C446.434 654.727 450.773 651.095 454.655 646.969C456.285 645.385 457.63 643.51 458.626 641.434C459.939 638.39 459.906 634.931 459.823 631.593C459.546 620.488 459.017 609.395 458.236 598.314" stroke="#3F3D56" stroke-width="4" stroke-miterlimit="10"/>
<path d="M470.29 597.7C470.202 595.667 469.623 593.69 468.606 591.952C467.59 590.214 466.169 588.77 464.475 587.755L461.866 593.134L461.949 586.63C459.585 585.907 457.061 585.985 454.741 586.852C452.422 587.719 450.427 589.33 449.044 591.454C447.661 593.577 446.962 596.103 447.048 598.667C447.134 601.231 447.999 603.701 449.52 605.719C451.041 607.738 453.139 609.202 455.511 609.899C457.882 610.596 460.405 610.491 462.716 609.599C465.027 608.707 467.005 607.074 468.367 604.935C469.728 602.796 470.402 600.263 470.29 597.7V597.7Z" fill="#57B894"/>
<path d="M449.521 679.858C448.298 682.326 446.298 684.281 443.855 685.396C441.412 686.511 438.675 686.718 436.103 685.982C433.531 685.246 431.281 683.612 429.728 681.354C428.176 679.096 427.416 676.351 427.576 673.58C427.736 670.808 428.807 668.178 430.608 666.13C432.409 664.082 434.832 662.741 437.47 662.332C440.109 661.922 442.802 662.469 445.099 663.881C447.395 665.293 449.156 667.483 450.086 670.086L442.801 676.252L450.817 674.315C450.819 676.244 450.375 678.146 449.521 679.858V679.858Z" fill="#57B894"/>
<path d="M443.706 656.292C442.176 656.37 440.646 656.132 439.204 655.593C437.762 655.053 436.437 654.222 435.304 653.148C434.172 652.073 433.254 650.776 432.605 649.332C431.955 647.887 431.586 646.323 431.519 644.729C431.427 642.83 431.772 640.936 432.524 639.203C433.222 637.581 434.254 636.138 435.545 634.975C436.837 633.813 438.358 632.959 440.001 632.475L439.943 637.482L442.576 632.042C444.107 631.964 445.637 632.202 447.079 632.742C448.521 633.281 449.846 634.112 450.978 635.187C452.111 636.261 453.028 637.558 453.678 639.003C454.327 640.447 454.696 642.012 454.763 643.605C454.832 645.006 454.663 646.408 454.265 647.748C453.563 650.13 452.173 652.229 450.283 653.758C448.394 655.287 446.097 656.172 443.706 656.292V656.292Z" fill="#57B894"/>
<path d="M472.043 636.686C470.253 636.755 468.473 636.392 466.84 635.626C465.207 634.861 463.766 633.713 462.629 632.272C461.492 630.832 460.69 629.137 460.286 627.321C459.881 625.505 459.885 623.616 460.297 621.802C460.709 619.987 461.518 618.296 462.661 616.861C463.804 615.425 465.25 614.284 466.886 613.526C468.522 612.768 470.304 612.413 472.094 612.49C473.883 612.566 475.631 613.072 477.202 613.967L475.142 619.848L479.379 615.611C481.092 617.224 482.304 619.332 482.862 621.665C483.42 623.999 483.297 626.452 482.51 628.713C481.723 630.974 480.308 632.94 478.443 634.36C476.579 635.78 474.351 636.59 472.043 636.686V636.686Z" fill="#57B894"/>
<path opacity="0.1" d="M468.72 600.935C466.037 601.246 463.412 602.119 460.712 602.292C458.012 602.465 455.046 601.791 453.343 599.603C452.421 598.427 451.956 596.939 451.183 595.659C450.446 594.464 449.439 593.475 448.25 592.779C447.541 594.311 447.149 595.98 447.1 597.68C447.052 599.379 447.347 601.07 447.968 602.643C448.589 604.215 449.521 605.634 450.704 606.807C451.886 607.979 453.293 608.88 454.832 609.449C456.371 610.018 458.007 610.244 459.636 610.111C461.264 609.978 462.847 609.489 464.282 608.677C465.716 607.865 466.971 606.747 467.963 605.397C468.955 604.046 469.663 602.494 470.041 600.839C469.601 600.857 469.16 600.891 468.72 600.935Z" fill="black"/>
<path opacity="0.1" d="M472.043 636.687C470.037 636.778 468.042 636.329 466.251 635.383C464.461 634.438 462.934 633.028 461.819 631.289C460.704 629.551 460.039 627.542 459.887 625.458C459.735 623.374 460.102 621.284 460.953 619.39C461.882 620.038 462.681 620.869 463.304 621.837C464.134 623.143 464.633 624.648 465.613 625.85C467.424 628.073 470.531 628.799 473.339 628.661C476.147 628.523 478.872 627.701 481.647 627.433C482.037 627.433 482.436 627.364 482.826 627.355C482.249 629.92 480.883 632.219 478.937 633.903C476.991 635.587 474.571 636.564 472.043 636.687V636.687Z" fill="black"/>
<path opacity="0.1" d="M443.706 656.292C442.176 656.37 440.646 656.132 439.204 655.593C437.762 655.053 436.437 654.222 435.304 653.148C434.172 652.073 433.254 650.776 432.605 649.332C431.955 647.887 431.586 646.323 431.519 644.729C431.427 642.83 431.772 640.936 432.524 639.203C433.493 639.858 434.338 640.694 435.016 641.668C435.922 643 436.487 644.53 437.509 645.758C439.478 648.042 442.784 648.846 445.766 648.768C448.749 648.69 451.432 647.964 454.298 647.739C453.596 650.128 452.201 652.233 450.305 653.764C448.409 655.295 446.104 656.178 443.706 656.292V656.292Z" fill="black"/>
<path opacity="0.1" d="M449.521 679.858C448.897 681.311 448.004 682.621 446.893 683.714C445.782 684.808 444.475 685.662 443.046 686.23C441.618 686.797 440.096 687.066 438.568 687.021C437.04 686.976 435.535 686.619 434.14 685.968C432.745 685.318 431.486 684.388 430.436 683.232C429.386 682.075 428.565 680.715 428.02 679.228C427.475 677.741 427.216 676.157 427.26 674.566C427.303 672.975 427.646 671.409 428.271 669.956C429.23 670.613 430.091 671.411 430.83 672.326C431.934 673.735 432.665 675.327 433.945 676.65C436.329 679.089 440.175 680.109 443.606 680.187C445.583 680.195 447.557 680.086 449.521 679.858V679.858Z" fill="black"/>
<path d="M420.379 697.752C420.379 697.752 429.583 697.458 432.358 695.399C435.133 693.341 446.481 690.885 447.204 694.189C447.926 697.492 461.027 710.62 450.643 710.672C440.259 710.724 426.501 708.986 423.735 707.213C420.968 705.44 420.379 697.752 420.379 697.752Z" fill="#656380"/>
<path opacity="0.2" d="M450.826 709.522C440.433 709.608 426.684 707.836 423.918 706.063C421.808 704.731 420.968 699.931 420.686 697.717H420.379C420.379 697.717 420.96 705.44 423.702 707.23C426.443 709.02 440.217 710.759 450.61 710.689C453.609 710.689 454.639 709.557 454.589 707.905C454.199 708.882 453.06 709.505 450.826 709.522Z" fill="black"/>
</svg>
